<svg xmlns="http://www.w3.org/2000/svg" xmlns:xlink="http://www.w3.org/1999/xlink" viewBox="0 0 40 40"><path fill="none" stroke="#4788c7" stroke-width="2" d="M27,17.4c0,0,0-8.114,0-8.4c0-3.866-3.134-7-7-7 s-7,3.134-7,7c0,0.286,0,8.4,0,8.4"/><path fill="#98ccfd" d="M20,38.5c-6.893,0-12.5-5.607-12.5-12.5S13.107,13.5,20,13.5S32.5,19.107,32.5,26 S26.893,38.5,20,38.5z"/><path fill="#4788c7" d="M20,14c6.617,0,12,5.383,12,12s-5.383,12-12,12S8,32.617,8,26S13.383,14,20,14 M20,13 c-7.18,0-13,5.82-13,13s5.82,13,13,13s13-5.82,13-13S27.18,13,20,13L20,13z"/><path fill="#dff0fe" d="M20 18A8 8 0 1 0 20 34A8 8 0 1 0 20 18Z"/><path fill="#4788c7" d="M20,31L20,31c-0.55,0-1-0.45-1-1v-3c0-0.55,0.45-1,1-1h0c0.55,0,1,0.45,1,1v3 C21,30.55,20.55,31,20,31z"/></svg>